<svg xmlns="http://www.w3.org/2000/svg" viewBox="0 0 512 512">
  <circle cx="256" cy="267" r="245" fill="#d1121d"/>
  <path d="M76.6 282.6a143.7 143.7 0 1 1 46.1 46.2l-63 16.9 16.9-63.1z" fill="#d89918"/>
  <path d="M455.1 219.8A143.7 143.7 0 1 0 409 266l63 16.9-16.9-63.1z" fill="#eabd00" stroke="#eabd00" stroke-miterlimit="10"/>
  <path fill="#fff" d="M229.2 437.9h-9.5l-3.1 29.1h-13.1l3.1-29.1h-7.1l1.2-11.4h7.1l2.8-26.6h-7.3l1.2-11.4h7.3l2.5-23.4h13.1l-2.5 23.4h9.5l2.5-23.4H250l-2.5 23.4h7.4l-1.2 11.4h-7.4l-2.8 26.6h7.4l-1.2 11.4h-7.4l-3.1 29.1h-13.1l3.1-29.1zm-8.3-11.4h9.5l2.8-26.6h-9.5l-2.8 26.6zM272.7 377.9c12.4 0 15.1-6 17.6-12.8h10.8V467h-16v-77.8h-12.4v-11.3z"/>
</svg>
