<svg xmlns="http://www.w3.org/2000/svg" xmlns:xlink="http://www.w3.org/1999/xlink" viewBox="0 0 512 512">
  <style>
    .st0{fill:#5e9d96}.st13{fill:#fff}.st17{fill:#d1121d}.st62{fill:#db9154}.st63{fill:#d37d42}.st64{fill:#f9c295}.st65{fill:#e59f6a}.st66{fill:#5c9cee}.st67{fill:#3580d3}.st68{fill:#ed5575}.st69{fill:#cc3a60}.st70{fill:#ebeef2}
  </style>
  <circle class="st0" cx="256" cy="267" r="245"/>
  <defs>
    <circle id="SVGID_23_" cx="256" cy="267" r="245"/>
  </defs>
  <clipPath id="SVGID_2_">
    <use xlink:href="#SVGID_23_" overflow="visible"/>
  </clipPath>
  <g clip-path="url(#SVGID_2_)">
    <path class="st62" d="M424.5 318.8L411 209.1l-25.3 3.1-49.1-27.6a30.2 30.2 0 0 0-17.2-3.7l-77.5 7.2c-9.5.9-18 6.3-22.8 14.6l-54.6 94a13 13 0 0 0 6.6 18.7l2.2.8c4.3 1.6 8.7 2.6 13.1 2.9l-6.9 6-13.8 12.1-39.4 33.6c-7 6.1-7.7 16.7-1.6 23.7l4 4.6c7.8 9 21.5 9.9 30.5 2.1l15 17.3a21.8 21.8 0 0 0 18.9 7.3c4.1-.5 8.2-2.2 11.5-5.2l15 17.3a21.9 21.9 0 0 0 19 7.3c4.1-.5 8.2-2.2 11.5-5.2l8.2 7.1c7.8 9 21.5 9.9 30.5 2.1l11.1-9.7 93.3-72.7.1-.1h36.8l-5.6-47.9z"/>
    <path class="st63" d="M384.5 338.3l-.1.1-93.4 72.7-11.1 9.7c-9 7.8-22.7 6.9-30.5-2.1l-8.2-7.1a21.6 21.6 0 0 1-30.5-2.1l-15-17.3a21.3 21.3 0 0 1-30.4-2.1l-15-17.3c-7.7 6.7-18.8 7-26.8 1.3a16.7 16.7 0 0 0 1.3 20.3l4 4.6c7.8 9 21.5 9.9 30.5 2.1l15 17.3a21.8 21.8 0 0 0 18.9 7.3c4.1-.5 8.2-2.2 11.5-5.2l15 17.3a21.9 21.9 0 0 0 19 7.3c4.1-.5 8.2-2.2 11.5-5.2l8.2 7.1c7.8 9 21.5 9.9 30.5 2.1l11.1-9.7 93.3-72.7.1-.1h36.8l-4.1-33.1-41.6 4.8z"/>
    <path class="st64" d="M401.5 385.7l-50-43.1-13.9-12-10-8.6-42.8-36.9 4.9-42.1a29.1 29.1 0 0 0-21.1-31.4l-93.3-25.8a21.6 21.6 0 0 0-25 11l-11.7 22.9-50.3-3.4-12.8 109.9-5.6 47.7 49 3.3.1.1 102.4 88.3 11.2 9.6c9 7.8 22.7 6.8 30.5-2.3l14.9-17.3a21.7 21.7 0 0 0 30.5-2.3l14.9-17.3a21.7 21.7 0 0 0 30.5-2.3l14.9-17.3c9 7.8 22.7 6.8 30.5-2.3l4-4.6a17 17 0 0 0-1.8-23.8z"/>
    <path class="st65" d="M401.5 385.7l-15.2-13.1a18 18 0 0 1-.7 22.4l-4.2 4.9a23 23 0 0 1-32.4 2.4l-15.9 18.4a22.9 22.9 0 0 1-32.4 2.4l-15.9 18.4a22.9 22.9 0 0 1-32.4 2.4l-15.9 18.4c-3 3.5-6.8 5.8-10.9 7l6.7 5.8c9 7.8 22.7 6.8 30.5-2.3l14.9-17.3a21.7 21.7 0 0 0 30.5-2.3l14.9-17.3a21.7 21.7 0 0 0 30.5-2.3l14.9-17.3c9 7.8 22.7 6.8 30.5-2.3l4-4.6c6.3-7 5.5-17.6-1.5-23.7z"/>
    <path class="st65" d="M373.9 410.5l-27.4-23.6a7.9 7.9 0 0 0-11 .8 7.9 7.9 0 0 0 .8 11l27.4 23.6 5.2-6c2.1 1.8 4.4 3.1 6.8 3.9 1.6-3.1 1-7.2-1.8-9.7zM330 439.8a7.7 7.7 0 0 0-1.6-9.8l-24.6-21.2a7.9 7.9 0 0 0-11 .8 7.9 7.9 0 0 0 .8 11l24.6 21.2 5.1-5.9a21 21 0 0 0 6.7 3.9z"/>
    <path class="st62" d="M121.4 377l-5.9 7.8a19.3 19.3 0 1 0 30.8 23.4l5.9-7.8a19.3 19.3 0 1 0-30.8-23.4zM157.5 393.5l-11.2 14.8a19.3 19.3 0 1 0 30.8 23.4l11.2-14.8a19.3 19.3 0 1 0-30.8-23.4zM192.5 411.5l-15.2 20.1a19.3 19.3 0 1 0 30.8 23.4l15.2-20.1a19.3 19.3 0 1 0-30.8-23.4zM224.3 433.8L208.2 455a19.3 19.3 0 1 0 30.8 23.4l16.1-21.3a19.3 19.3 0 0 0-30.8-23.3zM385.7 212.2l-49.1-27.6a30.2 30.2 0 0 0-17.2-3.7l-77.5 7.2c-9.5.9-18 6.3-22.8 14.6l-54.6 94a13 13 0 0 0 6.6 18.7l2.2.8c20 7.6 42.6 1.1 55.7-15.8l20.9-27.2s50.3 58.2 105.7-9.8"/>
    <path class="st66" d="M521.8 381.2l-25.7-208.5c-.3-2-1.3-3.9-2.9-5.2a7.8 7.8 0 0 0-5.7-1.6l-60 7.4a28.5 28.5 0 0 0-24.8 31.7l20.6 167.4a28.6 28.6 0 0 0 28.2 25l3.5-.2 60-7.4a7.7 7.7 0 0 0 6.8-8.6z"/>
    <path class="st67" d="M521.8 381.2l-2.8-22.9a8 8 0 0 1-5.7 3.5l-62.9 7.7c-1.2.2-2.5.2-3.7.2a30 30 0 0 1-25.5-14.4l2.1 17.1a28.6 28.6 0 0 0 28.2 25l3.5-.2 60-7.4a7.7 7.7 0 0 0 6.8-8.6z"/>
    <path class="st68" d="M84.6 173.3l-60-7.4c-2.1-.3-4.1.3-5.7 1.6a7.6 7.6 0 0 0-2.9 5.2L-9.8 381.2a7.8 7.8 0 0 0 6.8 8.7l60 7.4 3.5.2a28.4 28.4 0 0 0 28.2-25l20.6-167.4c2-15.6-9.1-29.8-24.7-31.8z"/>
    <path class="st69" d="M-9.8 381.2l2.8-22.9a8 8 0 0 0 5.7 3.5l62.9 7.7c1.2.2 2.5.2 3.7.2a30 30 0 0 0 25.5-14.4l-2.1 17.1a28.6 28.6 0 0 1-28.2 25l-3.5-.2-60-7.4a7.7 7.7 0 0 1-6.8-8.6z"/>
    <g>
      <circle class="st70" cx="472" cy="347.8" r="15.1"/>
      <circle class="st70" cx="39.2" cy="347.8" r="15.1"/>
    </g>
  </g>
  <path class="st17" d="M297.6 162h-83.2c-44.6 0-81-36.5-81-81 0-44.6 36.5-81 81-81h83.2c44.6 0 81 36.5 81 81 0 44.6-36.5 81-81 81z"/>
  <path class="st13" d="M247.4 98.9v9.5c0 7.3 3.2 9.9 8.3 9.9 5.1 0 8.3-2.6 8.3-9.9V85.9c0-7.3-3.2-10-8.3-10-5.1 0-8.3 2.8-8.3 10V89h-15.1l2.9-59.1h42.2v14.6h-28l-1.3 24.3h.3a15 15 0 0 1 13.8-7.4c11.8 0 17.8 8.3 17.8 23.3v22.7c0 16.3-8.2 25.6-23.9 25.6s-23.9-9.3-23.9-25.6V99h15.2z"/>
  <circle class="st0" cx="256" cy="267" r="245"/>
  <defs>
    <circle id="SVGID_47_" cx="256" cy="267" r="245"/>
  </defs>
  <clipPath id="SVGID_4_">
    <use xlink:href="#SVGID_47_" overflow="visible"/>
  </clipPath>
  <g clip-path="url(#SVGID_4_)">
    <path class="st62" d="M424.5 318.8L411 209.1l-25.3 3.1-49.1-27.6a30.2 30.2 0 0 0-17.2-3.7l-77.5 7.2c-9.5.9-18 6.3-22.8 14.6l-54.6 94a13 13 0 0 0 6.6 18.7l2.2.8c4.3 1.6 8.7 2.6 13.1 2.9l-6.9 6-13.8 12.1-39.4 33.6c-7 6.1-7.7 16.7-1.6 23.7l4 4.6c7.8 9 21.5 9.9 30.5 2.1l15 17.3a21.8 21.8 0 0 0 18.9 7.3c4.1-.5 8.2-2.2 11.5-5.2l15 17.3a21.9 21.9 0 0 0 19 7.3c4.1-.5 8.2-2.2 11.5-5.2l8.2 7.1c7.8 9 21.5 9.9 30.5 2.1l11.1-9.7 93.3-72.7.1-.1h36.8l-5.6-47.9z"/>
    <path class="st63" d="M384.5 338.3l-.1.1-93.4 72.7-11.1 9.7c-9 7.8-22.7 6.9-30.5-2.1l-8.2-7.1a21.6 21.6 0 0 1-30.5-2.1l-15-17.3a21.3 21.3 0 0 1-30.4-2.1l-15-17.3c-7.7 6.7-18.8 7-26.8 1.3a16.7 16.7 0 0 0 1.3 20.3l4 4.6c7.8 9 21.5 9.9 30.5 2.1l15 17.3a21.8 21.8 0 0 0 18.9 7.3c4.1-.5 8.2-2.2 11.5-5.2l15 17.3a21.9 21.9 0 0 0 19 7.3c4.1-.5 8.2-2.2 11.5-5.2l8.2 7.1c7.8 9 21.5 9.9 30.5 2.1l11.1-9.7 93.3-72.7.1-.1h36.8l-4.1-33.1-41.6 4.8z"/>
    <path class="st64" d="M401.5 385.7l-50-43.1-13.9-12-10-8.6-42.8-36.9 4.9-42.1a29.1 29.1 0 0 0-21.1-31.4l-93.3-25.8a21.6 21.6 0 0 0-25 11l-11.7 22.9-50.3-3.4-12.8 109.9-5.6 47.7 49 3.3.1.1 102.4 88.3 11.2 9.6c9 7.8 22.7 6.8 30.5-2.3l14.9-17.3a21.7 21.7 0 0 0 30.5-2.3l14.9-17.3a21.7 21.7 0 0 0 30.5-2.3l14.9-17.3c9 7.8 22.7 6.8 30.5-2.3l4-4.6a17 17 0 0 0-1.8-23.8z"/>
    <path class="st65" d="M401.5 385.7l-15.2-13.1a18 18 0 0 1-.7 22.4l-4.2 4.9a23 23 0 0 1-32.4 2.4l-15.9 18.4a22.9 22.9 0 0 1-32.4 2.4l-15.9 18.4a22.9 22.9 0 0 1-32.4 2.4l-15.9 18.4c-3 3.5-6.8 5.8-10.9 7l6.7 5.8c9 7.8 22.7 6.8 30.5-2.3l14.9-17.3a21.7 21.7 0 0 0 30.5-2.3l14.9-17.3a21.7 21.7 0 0 0 30.5-2.3l14.9-17.3c9 7.8 22.7 6.8 30.5-2.3l4-4.6c6.3-7 5.5-17.6-1.5-23.7z"/>
    <path class="st65" d="M373.9 410.5l-27.4-23.6a7.9 7.9 0 0 0-11 .8 7.9 7.9 0 0 0 .8 11l27.4 23.6 5.2-6c2.1 1.8 4.4 3.1 6.8 3.9 1.6-3.1 1-7.2-1.8-9.7zM330 439.8a7.7 7.7 0 0 0-1.6-9.8l-24.6-21.2a7.9 7.9 0 0 0-11 .8 7.9 7.9 0 0 0 .8 11l24.6 21.2 5.1-5.9a21 21 0 0 0 6.7 3.9z"/>
    <path class="st62" d="M121.4 377l-5.9 7.8a19.3 19.3 0 1 0 30.8 23.4l5.9-7.8a19.3 19.3 0 1 0-30.8-23.4zM157.5 393.5l-11.2 14.8a19.3 19.3 0 1 0 30.8 23.4l11.2-14.8a19.3 19.3 0 1 0-30.8-23.4zM192.5 411.5l-15.2 20.1a19.3 19.3 0 1 0 30.8 23.4l15.2-20.1a19.3 19.3 0 1 0-30.8-23.4zM224.3 433.8L208.2 455a19.3 19.3 0 1 0 30.8 23.4l16.1-21.3a19.3 19.3 0 0 0-30.8-23.3zM385.7 212.2l-49.1-27.6a30.2 30.2 0 0 0-17.2-3.7l-77.5 7.2c-9.5.9-18 6.3-22.8 14.6l-54.6 94a13 13 0 0 0 6.6 18.7l2.2.8c20 7.6 42.6 1.1 55.7-15.8l20.9-27.2s50.3 58.2 105.7-9.8"/>
    <path class="st66" d="M521.8 381.2l-25.7-208.5c-.3-2-1.3-3.9-2.9-5.2a7.8 7.8 0 0 0-5.7-1.6l-60 7.4a28.5 28.5 0 0 0-24.8 31.7l20.6 167.4a28.6 28.6 0 0 0 28.2 25l3.5-.2 60-7.4a7.7 7.7 0 0 0 6.8-8.6z"/>
    <path class="st67" d="M521.8 381.2l-2.8-22.9a8 8 0 0 1-5.7 3.5l-62.9 7.7c-1.2.2-2.5.2-3.7.2a30 30 0 0 1-25.5-14.4l2.1 17.1a28.6 28.6 0 0 0 28.2 25l3.5-.2 60-7.4a7.7 7.7 0 0 0 6.8-8.6z"/>
    <path class="st68" d="M84.6 173.3l-60-7.4c-2.1-.3-4.1.3-5.7 1.6a7.6 7.6 0 0 0-2.9 5.2L-9.8 381.2a7.8 7.8 0 0 0 6.8 8.7l60 7.4 3.5.2a28.4 28.4 0 0 0 28.2-25l20.6-167.4c2-15.6-9.1-29.8-24.7-31.8z"/>
    <path class="st69" d="M-9.8 381.2l2.8-22.9a8 8 0 0 0 5.7 3.5l62.9 7.7c1.2.2 2.5.2 3.7.2a30 30 0 0 0 25.5-14.4l-2.1 17.1a28.6 28.6 0 0 1-28.2 25l-3.5-.2-60-7.4a7.7 7.7 0 0 1-6.8-8.6z"/>
    <g>
      <circle class="st70" cx="472" cy="347.8" r="15.1"/>
      <circle class="st70" cx="39.2" cy="347.8" r="15.1"/>
    </g>
  </g>
  <path class="st17" d="M297.6 162h-83.2c-44.6 0-81-36.5-81-81 0-44.6 36.5-81 81-81h83.2c44.6 0 81 36.5 81 81 0 44.6-36.5 81-81 81z"/>
  <g>
    <path class="st13" d="M185.2 42.7c12.4 0 15.1-6 17.6-12.8h10.8v101.9h-16V54h-12.4V42.7zM231.7 54.3c0-16.3 8.6-25.6 24.3-25.6 15.7 0 24.3 9.3 24.3 25.6v53c0 16.3-8.6 25.6-24.3 25.6-15.7 0-24.3-9.3-24.3-25.6v-53zm16 54c0 7.3 3.2 10 8.3 10 5.1 0 8.3-2.8 8.3-10v-55c0-7.3-3.2-10-8.3-10-5.1 0-8.3 2.8-8.3 10v55zM289.3 54.3c0-16.3 8.6-25.6 24.3-25.6 15.7 0 24.3 9.3 24.3 25.6v53c0 16.3-8.6 25.6-24.3 25.6-15.7 0-24.3-9.3-24.3-25.6v-53zm16.1 54c0 7.3 3.2 10 8.3 10 5.1 0 8.3-2.8 8.3-10v-55c0-7.3-3.2-10-8.3-10-5.1 0-8.3 2.8-8.3 10v55z"/>
  </g>
</svg>
