<svg xmlns="http://www.w3.org/2000/svg" viewBox="0 0 512 512">
  <style>
    .st13{fill:#fff}.st15{fill:#bbc1ce}
  </style>
  <circle cx="256" cy="267" r="245" fill="#eabd00"/>
  <path d="M96.8 178.2L252.6 62.9c2.9-2.1 4.2-2.1 6.7 0l155.9 115.2c8.8 6.8 19 12 19 22.5v104.7a19 19 0 0 1-19 19H96.8a19 19 0 0 1-19-19V200.7c0-10.5 10.9-16.8 19-22.5z" fill="#8b93a2"/>
  <path class="st13" d="M333.3 363.5H178.7a63 63 0 0 1-62.9-62.9V145.9A63 63 0 0 1 178.7 83h154.7a63 63 0 0 1 62.9 62.9v154.7a63.2 63.2 0 0 1-63 62.9z"/>
  <path class="st15" d="M77.8 197.3v184.9L256 293.3zM434.2 197.3v184.9L256 293.3z"/>
  <path d="M256 255.9l178.2 123.7a19 19 0 0 1-19 19H96.8a19 19 0 0 1-19-19L256 255.9z" fill="#ced2dc"/>
  <path d="M131.9 127.2c20.2 17.6 37.2 37.8 55.4 57.1a655.7 655.7 0 0 0 42.8 42.2c8.6 7.7 19.2 13.9 29.6 19.7a63.1 63.1 0 0 0 41.1 6.4c29.3-4.7 52-24.3 58.3-50.5 6.1-25.3-5.6-51.8-29.7-66.9-8.3-5.2-8.3-11.4-.1-16.7 19.5-12.6 30.6-29.7 31.1-51.6.5-24.9-11.2-44.4-34.7-57.2a71 71 0 0 0-70.7-.5 177.9 177.9 0 0 0-45.7 36.1c-15.5 16.1-30.2 32.8-45.5 49.1-10.3 11-21 21.7-31.9 32.8z" fill="#d1121d"/>
  <path class="st13" d="M218.6 147.1v9.5c0 7.3 3.2 9.9 8.3 9.9 5.1 0 8.3-2.6 8.3-9.9v-22.4c0-7.3-3.2-10-8.3-10-5.1 0-8.3 2.8-8.3 10v3.1h-15.1l2.9-59.1h42.2v14.6h-28l-1.3 24.3h.3a15 15 0 0 1 13.8-7.4c11.8 0 17.8 8.3 17.8 23.3v22.7c0 16.3-8.2 25.6-23.9 25.6s-23.9-9.3-23.9-25.6v-8.4h15.2zM260.5 102.5c0-16.3 8.6-25.6 24.3-25.6 15.7 0 24.3 9.3 24.3 25.6v53c0 16.3-8.6 25.6-24.3 25.6-15.7 0-24.3-9.3-24.3-25.6v-53zm16 54.1c0 7.3 3.2 10 8.3 10 5.1 0 8.3-2.8 8.3-10v-55c0-7.3-3.2-10-8.3-10-5.1 0-8.3 2.8-8.3 10v55z"/>
  <g fill="none" stroke="#1d1d1b" stroke-width="11" stroke-linecap="round" stroke-miterlimit="10">
    <path d="M379.1 214.7c0-65.2 52.9-118.1 118.1-118.1"/>
    <path stroke-linejoin="round" d="M473.7 141.3L501 96.8l-35.6-38.2"/>
  </g>
</svg>
