<svg id="Capa_1" xmlns="http://www.w3.org/2000/svg" xmlns:xlink="http://www.w3.org/1999/xlink" viewBox="0 0 512 512">
  <style>    .st4{fill:#eabd00}.st13{fill:#fff}.st28{fill:#bfa072}.st29{fill:#c9a978}.st30{fill:#d4b17e}.st31{fill:#f59d00}.st32{fill:#e87e04}.st33{fill:#33495f}.st34{fill:#ecf0f1}.st35{fill:#2b3e51}.st36{fill:#bdc3c7}.st37{fill:#e5bf88}
  </style>
  <circle cx="256" cy="267" r="245" fill="#d1121d"/>
  <defs>
    <path id="SVGID_9_" d="M11 0v267a245 245 0 0 0 490 0V0H11z"/>
  </defs>
  <clipPath id="SVGID_2_">
    <use xlink:href="#SVGID_9_" overflow="visible"/>
  </clipPath>
  <g id="Strategy_3_" clip-path="url(#SVGID_2_)">
    <g id="trophy_3_">
      <path class="st28" d="M124.1 284.7c8 0 7.8 5.9 7.8 5.9V335.7c0 1.4.9 3.4 1.9 4.4l17 24 5.9 5.7 10.8 8.3c1 1 2.6-2.8 2.9-1.4l8.8 36.7c.3 1.4.2 3.6-.4 5l-6-8.3c-.5 1.3-8 5-9 3.9l-21.1-7.8c-.9-1.1-1.9-3.2-2.1-4.6l-3.6-23.9c-.2-1.4-1-3.6-1.7-4.8l-17.9-30.5c-.7-1.2-1.3-3.4-1.3-4.9V290c.1 0 0-5.3 8-5.3z"/>
      <path class="st29" d="M114.9 278.2c8 0 7.8 5.9 7.8 5.9V329.2c0 1.4.9 3.4 1.9 4.4l17 24 5.9 5.7 10.8 8.3c1 1 2.6-2.8 2.9-1.4l8.8 36.7c.3 1.4.2 3.6-.4 5l4.5 7.6c-.5 1.3-20.6-19.8-17.9-2.8l-22.7-16.9c-.9-1.1-1.9-3.2-2.1-4.6l-3.6-23.9c-.2-1.4-1-3.6-1.7-4.8L108.4 336c-.7-1.2-1.3-3.4-1.3-4.9v-47.6c0-.1-.2-5.3 7.8-5.3z"/>
      <path class="st30" d="M101.9 269.1c8 0 7.8 5.9 7.8 5.9v45c0 1.4.9 3.4 1.9 4.4l17 24 5.9 5.7 10.8 8.3c1 1 2.6-2.8 2.9-1.4l8.8 36.7c.3 1.4.2 3.6-.4 5l.6 16.5c-.5 1.3-8 5-9 3.9l-27.6-32.6c-.9-1.1-1.9-3.2-2.1-4.6l-3.6-23.9c-.2-1.4-1-3.6-1.7-4.8l-17.9-30.5c-.7-1.2-1.3-3.4-1.3-4.9v-47.6c0 .1-.1-5.1 7.9-5.1z"/>
      <path class="st28" d="M389.2 284.7c-8 0-7.8 5.9-7.8 5.9V335.7c0 1.4-.9 3.4-1.9 4.4l-17 24-5.9 5.7-10.8 8.3c-1 1-2.6-2.8-2.9-1.4l-8.8 36.7c-.3 1.4-.2 3.6.4 5l6-8.3c.5 1.3 8 5 9 3.9l21.1-7.8c.9-1.1 1.9-3.2 2.1-4.6l3.6-23.9c.2-1.4 1-3.6 1.7-4.8l17.9-30.5c.7-1.2 1.3-3.4 1.3-4.9V290c-.1 0 0-5.3-8-5.3z"/>
      <path class="st29" d="M398.4 278.2c-8 0-7.8 5.9-7.8 5.9V329.2c0 1.4-.9 3.4-1.9 4.4l-17 24-5.9 5.7-10.8 8.3c-1 1-2.6-2.8-2.9-1.4l-8.8 36.7c-.3 1.4-.2 3.6.4 5l-4.5 7.6c.5 1.3 20.6-19.8 17.9-2.8l22.7-16.9c.9-1.1 1.9-3.2 2.1-4.6l3.6-23.9c.2-1.4 1-3.6 1.7-4.8l17.9-30.5c.7-1.2 1.3-3.4 1.3-4.9v-47.6c-.2-.1 0-5.3-8-5.3z"/>
      <path class="st30" d="M411.4 269.1c-8 0-7.8 5.9-7.8 5.9v45c0 1.4-.9 3.4-1.9 4.4l-17 24-5.9 5.7-10.8 8.3c-1 1-2.6-2.8-2.9-1.4l-8.8 36.7c-.3 1.4-.2 3.6.4 5l-.6 16.5c.5 1.3 8 5 9 3.9l27.6-32.6c.9-1.1 1.9-3.2 2.1-4.6l3.6-23.9c.2-1.4 1-3.6 1.7-4.8l17.9-30.5c.7-1.2 1.3-3.4 1.3-4.9v-47.6c0 .1.1-5.1-7.9-5.1z"/>
      <path class="st31" d="M184.3 203.2c-49.3 0-86.1-29.1-106.2-84.1A271.2 271.2 0 0 1 62.7 38c0-2.4.9-4.8 2.6-6.5a9.3 9.3 0 0 1 6.5-2.7h84.9c5 0 9.1 4.1 9.1 9.1s-4.1 9.1-9.1 9.1H81.5a260 260 0 0 0 13.9 66.2c17.6 47.6 47.5 71.7 88.9 71.7 5 0 9.1 4.1 9.1 9.1a9 9 0 0 1-9.1 9.2z"/>
      <path class="st32" d="M327.7 203.2c-5 0-9.1-4.1-9.1-9.1s4.1-9.1 9.1-9.1c41.6 0 71.5-24.3 89.1-72.1a257.5 257.5 0 0 0 13.8-65.8h-75.3c-5 0-9.1-4.1-9.1-9.1s4.1-9.1 9.1-9.1h84.9c2.4 0 4.8 1 6.5 2.7a8.8 8.8 0 0 1 2.6 6.5c0 1.7-.7 41.1-15.4 81.1-20.2 54.9-56.9 84-106.2 84z"/>
      <path class="st4" d="M256 0H142.4s0 229.9 95.3 229.9v39l18.3 1.5V0z"/>
      <path class="st31" d="M256 0h113.6s0 229.9-95.3 229.9v39l-18.3 1.5V0z"/>
      <path class="st33" d="M390.5 398.4c0 5.7-4.7 10.4-10.4 10.4H133.2c-5.7 0-10.4-4.7-10.4-10.4v-98c0-5.7 4.7-10.4 10.4-10.4h246.9c5.7 0 10.4 4.7 10.4 10.4v98z"/>
      <path class="st34" d="M359.2 373.6c0 2.9-2.4 5.2-5.2 5.2H159.3a5.2 5.2 0 0 1-5.2-5.2v-47c0-2.9 2.4-5.2 5.2-5.2H354c2.9 0 5.2 2.4 5.2 5.2v47z"/>
      <path class="st35" d="M380.1 290H256v118.9h124.1c5.7 0 10.4-4.7 10.4-10.4v-98c0-5.8-4.7-10.5-10.4-10.5z"/>
      <path class="st4" d="M256 290v-14.4h-65.3s-34 7.4-34 14.8l99.3-.4z"/>
      <path class="st31" d="M206.4 263.8H256v11.8h-49.6zM256 290v-14.4h65.3s34 7.4 34 14.8L256 290z"/>
      <path class="st32" d="M256 263.8h49.6v11.8H256z"/>
      <path class="st36" d="M354 321.3h-98v57.5h98c2.9 0 5.2-2.4 5.2-5.2v-47c0-2.9-2.4-5.3-5.2-5.3z"/>
      <path class="st34" d="M314.8 462.4h78.4v18.3h-78.4z"/>
      <path class="st36" d="M314.8 462.4H354v18.3h-39.2z"/>
      <path class="st33" d="M308.2 594.1a332.9 332.9 0 0 0 91.4-28.3v-85.2h-91.4v113.5z"/>
      <path class="st35" d="M308.2 594.1c15.6-2.5 30.9-6 45.7-10.5v-103h-45.7v113.5z"/>
      <path class="st4" d="M307.6 197.2c-1.2 0-2.5-.4-3.4-1.3a5.2 5.2 0 0 1-.5-7.4c17.2-19.6 26.2-49.5 30.7-71.2a5.2 5.2 0 0 1 6.2-4c2.8.6 4.6 3.4 4 6.2-4.8 22.9-14.4 54.6-33.1 75.9a5.1 5.1 0 0 1-3.9 1.8zM344.1 94.2h-.5c-2.9-.3-5-2.9-4.7-5.7l.7-7.7a5.2 5.2 0 0 1 5.5-4.9c2.9.2 5.1 2.6 4.9 5.5l-.7 8.2a5.1 5.1 0 0 1-5.2 4.6z"/>
      <circle class="st34" cx="381" cy="341.1" r="5.2"/>
      <path class="st37" d="M423.2 274.3c-8 0-7.8 5.9-7.8 5.9V325.3c0 1.4-.9 3.4-1.9 4.4l-17 24c-1.1 1-4.5 8.2-5.4 9.3l-4.6 2 1.3-21.6s3-9.2-6-9.2-8.6 8.1-8.6 8.1l-5 25.4s-38.2 3.4-22.8 41.3h-35.7l19.6 19.6v34h48.3v-34l27.3-32.6a11 11 0 0 0 1.9-4.6l3.5-23.9c.2-1.4.9-3.6 1.7-4.8l17.8-30.5c.7-1.2 1.3-3.4 1.3-4.9V279.6c-.1-.1.1-5.3-7.9-5.3z"/>
      <path class="st28" d="M345.3 408.8h-35.7l11.4 11.5z"/>
      <circle class="st34" cx="381" cy="341.1" r="5.2"/>
      <path class="st36" d="M120.2 462.4h78.4v18.3h-78.4z"/>
      <path class="st34" d="M159.3 462.4h39.2v18.3h-39.2z"/>
      <path class="st35" d="M113.6 566.5c28.5 13.4 59.2 23 91.4 27.9V480.7h-91.4v85.8z"/>
      <path class="st33" d="M159.3 584c14.8 4.5 30.1 8 45.7 10.4V480.7h-45.7V584z"/>
      <circle class="st34" cx="132.3" cy="341.1" r="5.2"/>
      <path class="st37" d="M90.1 274.3c8 0 7.8 5.9 7.8 5.9V325.3c0 1.4.9 3.4 1.9 4.4l17 24c1.1 1 4.5 8.2 5.4 9.3l4.6 2-1.3-21.6s-3-9.2 6-9.2 8.6 8.1 8.6 8.1l5 25.4s38.2 3.4 22.8 41.3h35.7L184 428.6v34h-48.3v-34L108.4 396a11 11 0 0 1-1.9-4.6l-3.5-23.9c-.2-1.4-.9-3.6-1.7-4.8l-17.8-30.5c-.7-1.2-1.3-3.4-1.3-4.9V279.6c.1-.1-.1-5.3 7.9-5.3z"/>
      <path class="st28" d="M168 408.8h35.8l-11.5 11.5z"/>
      <circle class="st34" cx="132.3" cy="341.1" r="5.2"/>
    </g>
  </g>
  <g>
    <path class="st13" d="M227.6 61.5c-5.1 0-8.3 2.8-8.3 10v10.9h-15.1v-9.9c0-16.3 8.2-25.6 23.9-25.6S252 56.2 252 72.5c0 13.5-5 24.5-19.8 40.3-9.5 10.2-12.1 15-12.1 20.4l.1 2.2h30.3V150h-46.3v-12.5c0-11.4 4.1-20 16-32.5 12.2-13 15.7-21 15.7-31.9 0-9.2-3.2-11.6-8.3-11.6zM260.5 72.5c0-16.3 8.6-25.6 24.3-25.6 15.7 0 24.3 9.3 24.3 25.6v53c0 16.3-8.6 25.6-24.3 25.6-15.7 0-24.3-9.3-24.3-25.6v-53zm16 54.1c0 7.3 3.2 10 8.3 10 5.1 0 8.3-2.8 8.3-10v-55c0-7.3-3.2-10-8.3-10-5.1 0-8.3 2.8-8.3 10v55z"/>
  </g>
  <g>
    <defs>
      <path id="SVGID_11_" d="M11-572.4v267a245 245 0 0 0 490 0v-267H11z"/>
    </defs>
    <clipPath id="SVGID_4_">
      <use xlink:href="#SVGID_11_" overflow="visible"/>
    </clipPath>
    <g id="Strategy_2_" clip-path="url(#SVGID_4_)">
      <g id="trophy_2_">
        <path class="st33" d="M308.2 21.8a332.9 332.9 0 0 0 91.4-28.3v-85.2h-91.4V21.8z"/>
        <path class="st35" d="M308.2 21.8c15.6-2.5 30.9-6 45.7-10.5v-103h-45.7V21.8zM113.6-5.9c28.5 13.4 59.2 23 91.4 27.9V-91.7h-91.4v85.8z"/>
        <path class="st33" d="M159.3 11.6c14.8 4.5 30.1 8 45.7 10.4V-91.7h-45.7V11.6z"/>
      </g>
    </g>
  </g>
</svg>
