<svg xmlns="http://www.w3.org/2000/svg" viewBox="0 0 512 512">
  <circle cx="256" cy="267" r="245" fill="#1d1d1b"/>
  <path fill="#aa1417" d="M330.6 287.1H172.1L32.1.6h158.5z"/>
  <path fill="#d1121d" d="M181.4 287.1h158.5L479.9.6H321.4z"/>
  <circle cx="256" cy="366" r="125.5" fill="#eabd00"/>
  <path d="M256 251.1c30.7 0 59.6 12 81.3 33.7C359 306.5 371 335.3 371 366s-12 59.6-33.7 81.3C315.6 469 286.7 481 256 481s-59.6-12-81.3-33.7C153 425.6 141 396.7 141 366s12-59.6 33.7-81.3a114.2 114.2 0 0 1 81.3-33.6m0-21a136 136 0 1 0 0 272 136 136 0 0 0 0-272z" fill="#c4a105"/>
  <path fill="#fff" d="M228.6 397.1h-9.5l-3.1 29.1h-13l3.1-29.1H199l1.2-11.4h7.1l2.8-26.6h-7.3l1.2-11.4h7.3l2.5-23.4h13.1l-2.5 23.4h9.5l2.5-23.4h13.1l-2.5 23.4h7.4l-1.2 11.4h-7.4l-2.8 26.6h7.4l-1.2 11.4h-7.4l-3.1 29.1h-13.1l3-29.1zm-8.3-11.3h9.5l2.8-26.6h-9.5l-2.8 26.6zM272.1 337.1c12.4 0 15.1-6 17.6-12.8h10.8v101.9h-16v-77.8h-12.4v-11.3z"/>

</svg>
