<svg id="Capa_1" xmlns="http://www.w3.org/2000/svg" xmlns:xlink="http://www.w3.org/1999/xlink" viewBox="0 0 512 512">
  <style>
    .st0{fill:#5e9d96}.st4{fill:#eabd00}.st13{fill:#fff}.st17{fill:#d1121d}.st18{fill:#1d1d1b}.st50{fill:#df9006}.st59{fill:#fec9a3}.st60{fill:#fabd91}
  </style>
  <circle class="st18" cx="256" cy="267" r="245"/>
  <defs>
    <path id="SVGID_21_" d="M11 0v267a245 245 0 0 0 490 0V0H11z"/>
  </defs>
  <clipPath id="SVGID_2_">
    <use xlink:href="#SVGID_21_" overflow="visible"/>
  </clipPath>
  <g clip-path="url(#SVGID_2_)">
    <path class="st59" d="M512 460.7V366c0-10.4-5.1-20.1-13.6-26l-59.7-41.8a24 24 0 0 0-13.7-4.3h-48l.8 135.9a33 33 0 0 0 23 30.9H512z"/>
    <path class="st60" d="M464.3 460.7h-55.6a31.8 31.8 0 0 1-31.8-31.8v-31.8h55.6l31.8 63.6z"/>
    <path class="st50" d="M257.8 55.6c-5.5 0-10.9 1.2-15.9 3.4V0H99a47.7 47.7 0 0 0-47.7 47.7v143h58.9a39.7 39.7 0 1 1 72.7 0H242v-58.9a39.7 39.7 0 1 0 31.9-72.7 37.4 37.4 0 0 0-16.1-3.5z"/>
    <path class="st17" d="M432.6 47.7A47.7 47.7 0 0 0 384.9 0H242v58.9a39.7 39.7 0 1 1 0 72.7v58.9h58.9a39.7 39.7 0 1 0 72.7 0h59V47.7z"/>
    <path class="st17" d="M432.6 52.2c-45.4 63.2-127.4 99-190.6 118.3v20.1h58.9a39.7 39.7 0 1 0 72.7 0h58.9V52.2z"/>
    <path class="st4" d="M226.1 254.2c5.5 0 10.9 1.2 15.9 3.4v-66.9h-59a39.7 39.7 0 1 0-72.7 0h-59v143A47.7 47.7 0 0 0 99 381.4h143v-51a39.7 39.7 0 1 1-31.9-72.7c5-2.4 10.4-3.5 16-3.5z"/>
    <path class="st4" d="M51.3 333.6A47.7 47.7 0 0 0 99 381.3h143v-51a39.6 39.6 0 0 1-55.4-34.9 348.5 348.5 0 0 1-135.2 30.1l-.1 8.1z"/>
    <path class="st0" d="M453.3 356.6L403 222.4l-55.2 20.8a39.8 39.8 0 1 1-68 25.6l-55.2 20.8 23.5 62.8c-5.5-.3-10.9.5-16 2.4a39.8 39.8 0 0 0 27.9 74.5c5.1-1.9 9.8-4.9 13.7-8.8l17.9 47.9L425.4 418a47.5 47.5 0 0 0 27.9-61.4z"/>
    <path class="st0" d="M427.4 287.4c-54.8 82-157.5 110.6-217.7 120.4a39.5 39.5 0 0 0 64.1 12.9l17.9 47.9 133.8-50.4a48 48 0 0 0 27.9-61.6l-26-69.2z"/>
    <path class="st50" d="M257.8 55.6c-5.5 0-10.9 1.2-15.9 3.4V47.4c-59.5 54.7-140.1 85-190.6 99.7v43.5h58.9a39.7 39.7 0 1 1 72.7 0H242v-58.9a39.7 39.7 0 1 0 15.8-76.1z"/>
    <path class="st59" d="M416.8 357.6a19.6 19.6 0 1 0-28.1 27.5l.3.3 27.7 27.7a47.7 47.7 0 0 0 47.7 47.7H512v-7.9l-95.2-95.3z"/>
  </g>
  <path class="st13" d="M247.4 111.1v9.5c0 7.3 3.2 9.9 8.3 9.9 5.1 0 8.3-2.6 8.3-9.9V98.1c0-7.3-3.2-10-8.3-10-5.1 0-8.3 2.8-8.3 10v3.1h-15.1l2.9-59.1h42.2v14.6h-28L248.1 81h.3a15 15 0 0 1 13.8-7.4c11.8 0 17.8 8.3 17.8 23.3v22.7c0 16.3-8.2 25.6-23.9 25.6s-23.9-9.3-23.9-25.6v-8.4h15.2z"/>
  <circle class="st18" cx="256" cy="267" r="245"/>
  <g>
    <defs>
      <path id="SVGID_45_" d="M11 0v267a245 245 0 0 0 490 0V0H11z"/>
    </defs>
    <clipPath id="SVGID_4_">
      <use xlink:href="#SVGID_45_" overflow="visible"/>
    </clipPath>
    <g clip-path="url(#SVGID_4_)">
      <path class="st59" d="M512 460.7V366c0-10.4-5.1-20.1-13.6-26l-59.7-41.8a24 24 0 0 0-13.7-4.3h-48l.8 135.9a33 33 0 0 0 23 30.9H512z"/>
      <path class="st60" d="M464.3 460.7h-55.6a31.8 31.8 0 0 1-31.8-31.8v-31.8h55.6l31.8 63.6z"/>
      <path class="st50" d="M257.8 55.6c-5.5 0-10.9 1.2-15.9 3.4V0H99a47.7 47.7 0 0 0-47.7 47.7v143h58.9a39.7 39.7 0 1 1 72.7 0H242v-58.9a39.7 39.7 0 1 0 31.9-72.7 37.4 37.4 0 0 0-16.1-3.5z"/>
      <path class="st17" d="M432.6 47.7A47.7 47.7 0 0 0 384.9 0H242v58.9a39.7 39.7 0 1 1 0 72.7v58.9h58.9a39.7 39.7 0 1 0 72.7 0h59V47.7z"/>
      <path class="st17" d="M432.6 52.2c-45.4 63.2-127.4 99-190.6 118.3v20.1h58.9a39.7 39.7 0 1 0 72.7 0h58.9V52.2z"/>
      <path class="st4" d="M226.1 254.2c5.5 0 10.9 1.2 15.9 3.4v-66.9h-59a39.7 39.7 0 1 0-72.7 0h-59v143A47.7 47.7 0 0 0 99 381.4h143v-51a39.7 39.7 0 1 1-31.9-72.7c5-2.4 10.4-3.5 16-3.5z"/>
      <path class="st4" d="M51.3 333.6A47.7 47.7 0 0 0 99 381.3h143v-51a39.6 39.6 0 0 1-55.4-34.9 348.5 348.5 0 0 1-135.2 30.1l-.1 8.1z"/>
      <path class="st0" d="M453.3 356.6L403 222.4l-55.2 20.8a39.8 39.8 0 1 1-68 25.6l-55.2 20.8 23.5 62.8c-5.5-.3-10.9.5-16 2.4a39.8 39.8 0 0 0 27.9 74.5c5.1-1.9 9.8-4.9 13.7-8.8l17.9 47.9L425.4 418a47.5 47.5 0 0 0 27.9-61.4z"/>
      <path class="st0" d="M427.4 287.4c-54.8 82-157.5 110.6-217.7 120.4a39.5 39.5 0 0 0 64.1 12.9l17.9 47.9 133.8-50.4a48 48 0 0 0 27.9-61.6l-26-69.2z"/>
      <path class="st50" d="M257.8 55.6c-5.5 0-10.9 1.2-15.9 3.4V47.4c-59.5 54.7-140.1 85-190.6 99.7v43.5h58.9a39.7 39.7 0 1 1 72.7 0H242v-58.9a39.7 39.7 0 1 0 15.8-76.1z"/>
      <path class="st59" d="M416.8 357.6a19.6 19.6 0 1 0-28.1 27.5l.3.3 27.7 27.7a47.7 47.7 0 0 0 47.7 47.7H512v-7.9l-95.2-95.3z"/>
    </g>
  </g>
  <g>
    <path class="st13" d="M185.2 54.9c12.4 0 15.1-6 17.6-12.8h10.8V144h-16V66.2h-12.4V54.9zM231.7 66.5c0-16.3 8.6-25.6 24.3-25.6 15.7 0 24.3 9.3 24.3 25.6v53c0 16.3-8.6 25.6-24.3 25.6-15.7 0-24.3-9.3-24.3-25.6v-53zm16 54.1c0 7.3 3.2 10 8.3 10 5.1 0 8.3-2.8 8.3-10v-55c0-7.3-3.2-10-8.3-10-5.1 0-8.3 2.8-8.3 10v55zM289.4 66.5c0-16.3 8.6-25.6 24.3-25.6 15.7 0 24.3 9.3 24.3 25.6v53c0 16.3-8.6 25.6-24.3 25.6-15.7 0-24.3-9.3-24.3-25.6v-53zm16 54.1c0 7.3 3.2 10 8.3 10 5.1 0 8.3-2.8 8.3-10v-55c0-7.3-3.2-10-8.3-10-5.1 0-8.3 2.8-8.3 10v55z"/>
  </g>
</svg>
