<svg xmlns="http://www.w3.org/2000/svg" xmlns:xlink="http://www.w3.org/1999/xlink" viewBox="0 0 512 512">
  <style>
    .st1{fill:#ffaf10}.st13{fill:#fff}
  </style>
  <circle cx="256" cy="267" r="245" fill="#1d1d1b"/>
  <path class="st1" d="M256 322a32.8 32.8 0 1 1 0-65.6 32.8 32.8 0 0 1 0 65.6zm0-51a18.2 18.2 0 1 0 0 36.4 18.2 18.2 0 0 0 0-36.4z"/>
  <path class="st1" d="M347.8 369a13.5 13.5 0 0 0-10.7-9.1l-47.8-6.9-21.4-43.3a13.2 13.2 0 1 0-23.8 0L222.7 353l-47.7 7a13 13 0 0 0-10.7 9.1 13 13 0 0 0 3.4 13.6l34.6 33.7-8.2 47.6a13.2 13.2 0 0 0 13.1 15.5c2.1 0 4.2-.5 6.2-1.5l42.7-22.5 42.7 22.5a13.5 13.5 0 0 0 14-1c4.1-3 6.2-8 5.3-13l-8.2-47.6 34.6-33.7c3.6-3.6 4.9-8.9 3.3-13.7z"/>
  <defs>
    <path id="SVGID_1_" d="M347.8 369a13.5 13.5 0 0 0-10.7-9.1l-47.8-6.9-21.4-43.3a13.2 13.2 0 1 0-23.8 0L222.7 353l-47.7 7a13 13 0 0 0-10.7 9.1 13 13 0 0 0 3.4 13.6l34.6 33.7-8.2 47.6a13.2 13.2 0 0 0 13.1 15.5c2.1 0 4.2-.5 6.2-1.5l42.7-22.5 42.7 22.5a13.5 13.5 0 0 0 14-1c4.1-3 6.2-8 5.3-13l-8.2-47.6 34.6-33.7c3.6-3.6 4.9-8.9 3.3-13.7z"/>
  </defs>
  <clipPath id="SVGID_2_">
    <use xlink:href="#SVGID_1_" overflow="visible"/>
  </clipPath>
  <circle cx="321.2" cy="288.4" r="124.5" clip-path="url(#SVGID_2_)" fill="#eabd00"/>
  <path d="M415.2 150.2L279.4 261.5c-19.1 15.4-27.3 16-46.7 0L96.8 150.2c-8.8-6.8-19-16-19-26.5V19a19 19 0 0 1 19-19h318.4a19 19 0 0 1 19 19v104.7c0 10.5-10.9 20.8-19 26.5z" fill="#d1121d"/>
  <g>
    <defs>
      <path id="SVGID_3_" d="M415.2 150.2L279.4 261.5c-19.1 15.4-27.3 16-46.7 0L96.8 150.2c-8.8-6.8-19-16-19-26.5V19a19 19 0 0 1 19-19h318.4a19 19 0 0 1 19 19v104.7c0 10.5-10.9 20.8-19 26.5z"/>
    </defs>
    <clipPath id="SVGID_4_">
      <use xlink:href="#SVGID_3_" overflow="visible"/>
    </clipPath>
    <path clip-path="url(#SVGID_4_)" fill="#aa1417" d="M182.9-17.8h146.3V298H182.9z"/>
  </g>
  <g>
    <path class="st13" d="M229.2 132.9h-9.5l-3.1 29.1h-13.1l3.1-29.1h-7.1l1.2-11.4h7.1l2.8-26.6h-7.3l1.2-11.4h7.3l2.5-23.4h13.1l-2.5 23.4h9.5l2.5-23.4H250l-2.5 23.4h7.4l-1.2 11.4h-7.4l-2.8 26.6h7.4l-1.2 11.4h-7.4l-3.1 29.1h-13.1l3.1-29.1zm-8.3-11.4h9.5l2.8-26.6h-9.5l-2.8 26.6zM272.7 72.9c12.4 0 15.1-6 17.6-12.8h10.8V162h-16V84.2h-12.4V72.9z"/>
  </g>
</svg>
