<?xml version="1.0" encoding="UTF-8" standalone="no"?><!DOCTYPE svg PUBLIC "-//W3C//DTD SVG 1.1//EN" "http://www.w3.org/Graphics/SVG/1.1/DTD/svg11.dtd"><svg width="100%" height="100%" viewBox="0 0 512 512" version="1.1" xmlns="http://www.w3.org/2000/svg" xmlns:xlink="http://www.w3.org/1999/xlink" xml:space="preserve" xmlns:serif="http://www.serif.com/" style="fill-rule:evenodd;clip-rule:evenodd;stroke-linejoin:round;stroke-miterlimit:2;"><circle cx="256" cy="267" r="245" style="fill:#1d1d1b;"/><path d="M347.2,197.3l19.6,-107.8l-19.6,-89.5l-223.6,0l48,99.3l-48,98l223.6,0Z" style="fill:#d1121d;fill-rule:nonzero;"/><rect x="347.2" y="0" width="39.2" height="354" style="fill:#6e6e6e;fill-rule:nonzero;"/><rect x="366.8" y="0" width="19.6" height="354" style="fill:#444;fill-rule:nonzero;"/><g><path d="M313.2,319.9l0,42.5l-85.1,0l0,42.6l-85.1,0l0,42.5l-85.7,0l0,64.5l363,0l0,-192.1l-107.1,0Z" style="fill:#eabd00;fill-rule:nonzero;"/><rect x="366.4" y="319.9" width="53.9" height="192.1" style="fill:#df9006;fill-rule:nonzero;"/></g><circle cx="256" cy="267" r="245" style="fill:#1d1d1b;"/><g><path d="M347.2,197.3l19.6,-107.8l-19.6,-89.5l-223.6,0l48,99.3l-48,98l223.6,0Z" style="fill:#d1121d;fill-rule:nonzero;"/><rect x="347.2" y="0" width="39.2" height="354" style="fill:#6e6e6e;fill-rule:nonzero;"/><rect x="366.8" y="0" width="19.6" height="354" style="fill:#444;fill-rule:nonzero;"/></g><g><path d="M313.2,319.9l0,42.5l-85.1,0l0,42.6l-85.1,0l0,42.5l-85.7,0l0,64.5l363,0l0,-192.1l-107.1,0Z" style="fill:#eabd00;fill-rule:nonzero;"/><rect x="366.4" y="319.9" width="53.9" height="192.1" style="fill:#df9006;fill-rule:nonzero;"/></g><path d="M247.4,111.1l0,9.5c0,7.3 3.2,9.9 8.3,9.9c5.1,0 8.3,-2.6 8.3,-9.9l0,-22.5c0,-7.3 -3.2,-10 -8.3,-10c-5.1,0 -8.3,2.8 -8.3,10l0,3.1l-15.1,0l2.9,-59.1l42.2,0l0,14.6l-28,0l-1.3,24.3l0.3,0c2.841,-4.855 8.184,-7.72 13.8,-7.4c11.8,0 17.8,8.3 17.8,23.3l0,22.7c0,16.3 -8.2,25.6 -23.9,25.6c-15.7,0 -23.9,-9.3 -23.9,-25.6l0,-8.4l15.2,0l0,-0.1Z" style="fill:#fff;fill-rule:nonzero;"/></svg>