<?xml version="1.0" encoding="utf-8"?>
<!-- Generator: Adobe Illustrator 23.0.6, SVG Export Plug-In . SVG Version: 6.00 Build 0)  -->
<svg version="1.1" id="Capa_1" xmlns="http://www.w3.org/2000/svg" xmlns:xlink="http://www.w3.org/1999/xlink" x="0px" y="0px"
	 viewBox="0 0 512 512" style="enable-background:new 0 0 512 512;" xml:space="preserve">
<style type="text/css">
	.st0{fill:#5E9D96;}
	.st1{fill:#FFAF10;}
	.st2{fill:#EF9614;}
	.st3{fill:#FFD00D;}
	.st4{fill:#EABD00;}
	.st5{fill:#EF8318;}
	.st6{fill:#DB722C;}
	.st7{fill:#A05F33;}
	.st8{fill:#87502A;}
	.st9{fill:#4B7D78;}
	.st10{fill:#BF7E52;}
	.st11{fill:#AA6B3F;}
	.st12{fill:#C95E23;}
	.st13{fill:#FFFFFF;}
	.st14{fill:#8B93A2;}
	.st15{fill:#BBC1CE;}
	.st16{fill:#CED2DC;}
	.st17{fill:#D1121D;}
	.st18{fill:#1D1D1B;}
	.st19{clip-path:url(#SVGID_2_);fill:#EABD00;}
	.st20{clip-path:url(#SVGID_4_);fill:#AA1417;}
	.st21{fill:none;stroke:#1D1D1B;stroke-width:11;stroke-linecap:round;stroke-miterlimit:10;}
	.st22{fill:none;stroke:#1D1D1B;stroke-width:11;stroke-linecap:round;stroke-linejoin:round;stroke-miterlimit:10;}
	.st23{fill:#D89918;}
	.st24{fill:#EABD00;stroke:#EABD00;stroke-miterlimit:10;}
	.st25{fill:#AA1417;}
	.st26{fill:#C4A105;}
	.st27{clip-path:url(#SVGID_6_);}
	.st28{fill:#BFA072;}
	.st29{fill:#C9A978;}
	.st30{fill:#D4B17E;}
	.st31{fill:#F59D00;}
	.st32{fill:#E87E04;}
	.st33{fill:#33495F;}
	.st34{fill:#ECF0F1;}
	.st35{fill:#2B3E51;}
	.st36{fill:#BDC3C7;}
	.st37{fill:#E5BF88;}
	.st38{clip-path:url(#SVGID_8_);}
	.st39{clip-path:url(#SVGID_10_);}
	.st40{clip-path:url(#SVGID_12_);}
	.st41{clip-path:url(#SVGID_14_);}
	.st42{clip-path:url(#SVGID_16_);}
	.st43{fill:#DBDBE0;}
	.st44{fill:#D2D2D6;}
	.st45{fill:#CCCCD1;}
	.st46{fill:#BABAC0;}
	.st47{fill:#CACACF;}
	.st48{fill:#A1A1A7;}
	.st49{fill:#EDC624;}
	.st50{fill:#DF9006;}
	.st51{clip-path:url(#SVGID_18_);}
	.st52{fill:#DB8D84;}
	.st53{fill:#E9A9AB;}
	.st54{fill:#E4B9C5;}
	.st55{fill:#6E6E6E;}
	.st56{fill:#444444;}
	.st57{clip-path:url(#SVGID_20_);}
	.st58{clip-path:url(#SVGID_22_);}
	.st59{fill:#FEC9A3;}
	.st60{fill:#FABD91;}
	.st61{clip-path:url(#SVGID_24_);}
	.st62{fill:#DB9154;}
	.st63{fill:#D37D42;}
	.st64{fill:#F9C295;}
	.st65{fill:#E59F6A;}
	.st66{fill:#5C9CEE;}
	.st67{fill:#3580D3;}
	.st68{fill:#ED5575;}
	.st69{fill:#CC3A60;}
	.st70{fill:#EBEEF2;}
	.st71{clip-path:url(#SVGID_26_);fill:#EABD00;}
	.st72{clip-path:url(#SVGID_28_);fill:#AA1417;}
	.st73{clip-path:url(#SVGID_30_);}
	.st74{clip-path:url(#SVGID_32_);}
	.st75{clip-path:url(#SVGID_34_);}
	.st76{clip-path:url(#SVGID_36_);}
	.st77{clip-path:url(#SVGID_38_);}
	.st78{clip-path:url(#SVGID_40_);}
	.st79{clip-path:url(#SVGID_42_);}
	.st80{clip-path:url(#SVGID_44_);}
	.st81{clip-path:url(#SVGID_46_);}
	.st82{clip-path:url(#SVGID_48_);}
	.st83{clip-path:url(#SVGID_50_);}
	.st84{clip-path:url(#SVGID_52_);}
	.st85{clip-path:url(#SVGID_54_);}
	.st86{clip-path:url(#SVGID_56_);}
	.st87{clip-path:url(#SVGID_58_);}
	.st88{clip-path:url(#SVGID_60_);}
	.st89{clip-path:url(#SVGID_62_);}
	.st90{clip-path:url(#SVGID_64_);}
	.st91{clip-path:url(#SVGID_66_);}
	.st92{clip-path:url(#SVGID_68_);}
	.st93{clip-path:url(#SVGID_70_);}
	.st94{clip-path:url(#SVGID_72_);}
	.st95{clip-path:url(#SVGID_74_);}
	.st96{clip-path:url(#SVGID_76_);}
	.st97{clip-path:url(#SVGID_78_);}
	.st98{clip-path:url(#SVGID_80_);}
	.st99{clip-path:url(#SVGID_82_);}
	.st100{clip-path:url(#SVGID_84_);}
	.st101{clip-path:url(#SVGID_86_);}
	.st102{clip-path:url(#SVGID_88_);}
	.st103{clip-path:url(#SVGID_90_);}
	.st104{clip-path:url(#SVGID_92_);}
	.st105{clip-path:url(#SVGID_94_);}
	.st106{clip-path:url(#SVGID_96_);}
	.st107{clip-path:url(#SVGID_98_);}
	.st108{clip-path:url(#SVGID_100_);}
	.st109{clip-path:url(#SVGID_102_);}
	.st110{clip-path:url(#SVGID_104_);}
	.st111{clip-path:url(#SVGID_106_);}
	.st112{clip-path:url(#SVGID_108_);}
	.st113{clip-path:url(#SVGID_110_);}
	.st114{clip-path:url(#SVGID_112_);}
	.st115{clip-path:url(#SVGID_114_);}
	.st116{clip-path:url(#SVGID_116_);}
	.st117{clip-path:url(#SVGID_118_);}
	.st118{clip-path:url(#SVGID_120_);}
	.st119{clip-path:url(#SVGID_122_);}
	.st120{clip-path:url(#SVGID_124_);}
	.st121{clip-path:url(#SVGID_126_);}
	.st122{clip-path:url(#SVGID_128_);}
</style>
<circle class="st18" cx="256" cy="267" r="245"/>
<g>
	<path class="st17" d="M347.2,197.3l19.6-107.8L347.2,0H123.6l48,99.3l-48,98H347.2z"/>
	<path class="st55" d="M347.2,0h39.2v354h-39.2V0z"/>
	<path class="st56" d="M366.8,0h19.6v354h-19.6V0z"/>
</g>
<g>
	<g>
		<path class="st13" d="M247.4,111.1v9.5c0,7.3,3.2,9.9,8.3,9.9c5.1,0,8.3-2.6,8.3-9.9V98.1c0-7.3-3.2-10-8.3-10
			c-5.1,0-8.3,2.8-8.3,10v3.1h-15.1l2.9-59.1h42.2v14.6h-28l-1.3,24.3h0.3c2.9-4.8,7.4-7.4,13.8-7.4c11.8,0,17.8,8.3,17.8,23.3v22.7
			c0,16.3-8.2,25.6-23.9,25.6c-15.7,0-23.9-9.3-23.9-25.6v-8.4H247.4z"/>
	</g>
</g>
<g>
	<defs>
		<circle id="SVGID_93_" cx="256" cy="267" r="245"/>
	</defs>
	<clipPath id="SVGID_2_">
		<use xlink:href="#SVGID_93_"  style="overflow:visible;"/>
	</clipPath>
	<g style="clip-path:url(#SVGID_2_);">
		<path class="st4" d="M313.2,319.9v42.5h-85.1V405h-85.1v42.5H57.3V512h363V319.9H313.2z"/>
		<path class="st50" d="M366.4,319.9h53.9V512h-53.9V319.9z"/>
	</g>
</g>
<circle class="st18" cx="256" cy="267" r="245"/>
<g>
	<path class="st17" d="M347.2,197.3l19.6-107.8L347.2,0H123.6l48,99.3l-48,98H347.2z"/>
	<path class="st55" d="M347.2,0h39.2v354h-39.2V0z"/>
	<path class="st56" d="M366.8,0h19.6v354h-19.6V0z"/>
</g>
<g>
	<g>
		<path class="st13" d="M214.1,54.9c12.4,0,15.1-6,17.6-12.8h10.8V144h-16V66.2h-12.4V54.9z"/>
		<path class="st13" d="M260.5,66.5c0-16.3,8.6-25.6,24.3-25.6c15.7,0,24.3,9.3,24.3,25.6v53c0,16.3-8.6,25.6-24.3,25.6
			c-15.7,0-24.3-9.3-24.3-25.6V66.5z M276.5,120.6c0,7.3,3.2,10,8.3,10c5.1,0,8.3-2.8,8.3-10v-55c0-7.3-3.2-10-8.3-10
			c-5.1,0-8.3,2.8-8.3,10V120.6z"/>
	</g>
</g>
<g>
	<defs>
		<circle id="SVGID_103_" cx="256" cy="267" r="245"/>
	</defs>
	<clipPath id="SVGID_4_">
		<use xlink:href="#SVGID_103_"  style="overflow:visible;"/>
	</clipPath>
	<g style="clip-path:url(#SVGID_4_);">
		<path class="st4" d="M313.2,319.9v42.5h-85.1V405h-85.1v42.5H57.3V512h363V319.9H313.2z"/>
		<path class="st50" d="M366.4,319.9h53.9V512h-53.9V319.9z"/>
	</g>
</g>
</svg>
