<svg id="Capa_1" xmlns="http://www.w3.org/2000/svg" xmlns:xlink="http://www.w3.org/1999/xlink" viewBox="0 0 512 512">
  <style>
    .st4{fill:#eabd00}.st13{fill:#fff}.st17{fill:#d1121d}.st18{fill:#1d1d1b}.st50{fill:#df9006}.st55{fill:#6e6e6e}.st56{fill:#444}
  </style>
  <circle class="st18" cx="256" cy="267" r="245"/>
  <path class="st17" d="M347.2 197.3l19.6-107.8L347.2 0H123.6l48 99.3-48 98h223.6z"/>
  <path class="st55" d="M347.2 0h39.2v354h-39.2V0z"/>
  <path class="st56" d="M366.8 0h19.6v354h-19.6V0z"/>
  <path class="st13" d="M247.4 111.1v9.5c0 7.3 3.2 9.9 8.3 9.9 5.1 0 8.3-2.6 8.3-9.9V98.1c0-7.3-3.2-10-8.3-10-5.1 0-8.3 2.8-8.3 10v3.1h-15.1l2.9-59.1h42.2v14.6h-28L248.1 81h.3a15 15 0 0 1 13.8-7.4c11.8 0 17.8 8.3 17.8 23.3v22.7c0 16.3-8.2 25.6-23.9 25.6s-23.9-9.3-23.9-25.6v-8.4h15.2z"/>
  <defs>
    <circle id="SVGID_19_" cx="256" cy="267" r="245"/>
  </defs>
  <clipPath id="SVGID_2_">
    <use xlink:href="#SVGID_19_" overflow="visible"/>
  </clipPath>
  <g clip-path="url(#SVGID_2_)">
    <path class="st4" d="M313.2 319.9v42.5h-85.1V405H143v42.5H57.3V512h363V319.9H313.2z"/>
    <path class="st50" d="M366.4 319.9h53.9V512h-53.9V319.9z"/>
  </g>
  <circle class="st18" cx="256" cy="267" r="245"/>
  <g>
    <path class="st17" d="M347.2 197.3l19.6-107.8L347.2 0H123.6l48 99.3-48 98h223.6z"/>
    <path class="st55" d="M347.2 0h39.2v354h-39.2V0z"/>
    <path class="st56" d="M366.8 0h19.6v354h-19.6V0z"/>
  </g>
  <g>
    <path class="st13" d="M185.2 54.9c12.4 0 15.1-6 17.6-12.8h10.8V144h-16V66.2h-12.4V54.9zM231.7 66.5c0-16.3 8.6-25.6 24.3-25.6 15.7 0 24.3 9.3 24.3 25.6v53c0 16.3-8.6 25.6-24.3 25.6-15.7 0-24.3-9.3-24.3-25.6v-53zm16 54.1c0 7.3 3.2 10 8.3 10 5.1 0 8.3-2.8 8.3-10v-55c0-7.3-3.2-10-8.3-10-5.1 0-8.3 2.8-8.3 10v55zM289.4 66.5c0-16.3 8.6-25.6 24.3-25.6 15.7 0 24.3 9.3 24.3 25.6v53c0 16.3-8.6 25.6-24.3 25.6-15.7 0-24.3-9.3-24.3-25.6v-53zm16 54.1c0 7.3 3.2 10 8.3 10 5.1 0 8.3-2.8 8.3-10v-55c0-7.3-3.2-10-8.3-10-5.1 0-8.3 2.8-8.3 10v55z"/>
  </g>
  <g>
    <defs>
      <circle id="SVGID_43_" cx="256" cy="267" r="245"/>
    </defs>
    <clipPath id="SVGID_4_">
      <use xlink:href="#SVGID_43_" overflow="visible"/>
    </clipPath>
    <g clip-path="url(#SVGID_4_)">
      <path class="st4" d="M313.2 319.9v42.5h-85.1V405H143v42.5H57.3V512h363V319.9H313.2z"/>
      <path class="st50" d="M366.4 319.9h53.9V512h-53.9V319.9z"/>
    </g>
  </g>
</svg>
