<svg id="Capa_1" xmlns="http://www.w3.org/2000/svg" xmlns:xlink="http://www.w3.org/1999/xlink" viewBox="0 0 512 512">
  <style>
    .st4{fill:#eabd00}.st13{fill:#fff}.st17{fill:#d1121d}.st31{fill:#f59d00}.st32{fill:#e87e04}.st43{fill:#dbdbe0}.st44{fill:#d2d2d6}.st45{fill:#ccccd1}.st46{fill:#babac0}.st47{fill:#cacacf}.st48{fill:#a1a1a7}.st49{fill:#edc624}.st50{fill:#df9006}
  </style>
  <circle class="st17" cx="256" cy="267" r="245"/>
  <defs>
    <path id="SVGID_49_" d="M11 0v267a245 245 0 0 0 490 0V0H11z"/>
  </defs>
  <clipPath id="SVGID_2_">
    <use xlink:href="#SVGID_49_" overflow="visible"/>
  </clipPath>
  <g clip-path="url(#SVGID_2_)">
    <path class="st43" d="M-27.8 467.8H256v66.7H-27.8z"/>
    <path class="st44" d="M6.6 401.1H256v66.7H6.6z"/>
    <path class="st45" d="M40.3 334.4H256v66.7H40.3z"/>
    <path class="st46" d="M72.8 267.7H256v66.7H72.8z"/>
    <g>
      <path transform="rotate(-180 397.9 501.1)" class="st44" d="M256 467.8h283.8v66.7H256z"/>
      <path transform="rotate(-180 380.7 434.5)" class="st47" d="M256 401.1h249.4v66.7H256z"/>
      <path transform="rotate(-180 363.8 367.8)" class="st46" d="M256 334.4h215.7v66.7H256z"/>
      <path transform="rotate(-180 347.6 301)" class="st48" d="M256 267.7h183.2v66.7H256z"/>
    </g>
    <g>
      <path class="st49" d="M104.4 67.7H256v100H104.4z"/>
      <path class="st4" d="M104.4 167.7H256v100H104.4z"/>
      <path class="st31" d="M256 67.7h151.6v100H256z"/>
      <path class="st50" d="M256 167.7h151.6v100H256z"/>
      <path class="st31" d="M222.7 33.8H256V0h-66.5v67.7h33.2z"/>
      <path class="st32" d="M289.3 33.8H256V0h66.5v67.7h-33.2z"/>
    </g>
  </g>
  <path class="st13" d="M247.4 181.1v9.5c0 7.3 3.2 9.9 8.3 9.9 5.1 0 8.3-2.6 8.3-9.9v-22.4c0-7.3-3.2-10-8.3-10-5.1 0-8.3 2.8-8.3 10v3.1h-15.1l2.9-59.1h42.2v14.6h-28l-1.3 24.3h.3a15 15 0 0 1 13.8-7.4c11.8 0 17.8 8.3 17.8 23.3v22.7c0 16.3-8.2 25.6-23.9 25.6s-23.9-9.3-23.9-25.6v-8.4h15.2z"/>
  <circle class="st17" cx="256" cy="267" r="245"/>
  <g>
    <defs>
      <path id="SVGID_59_" d="M11 0v267a245 245 0 0 0 490 0V0H11z"/>
    </defs>
    <clipPath id="SVGID_4_">
      <use xlink:href="#SVGID_59_" overflow="visible"/>
    </clipPath>
    <g clip-path="url(#SVGID_4_)">
      <path class="st43" d="M-27.8 467.8H256v66.7H-27.8z"/>
      <path class="st44" d="M6.6 401.1H256v66.7H6.6z"/>
      <path class="st45" d="M40.3 334.4H256v66.7H40.3z"/>
      <path class="st46" d="M72.8 267.7H256v66.7H72.8z"/>
      <g>
        <path transform="rotate(-180 397.9 501.1)" class="st44" d="M256 467.8h283.8v66.7H256z"/>
        <path transform="rotate(-180 380.7 434.5)" class="st47" d="M256 401.1h249.4v66.7H256z"/>
        <path transform="rotate(-180 363.8 367.8)" class="st46" d="M256 334.4h215.7v66.7H256z"/>
        <path transform="rotate(-180 347.6 301)" class="st48" d="M256 267.7h183.2v66.7H256z"/>
      </g>
      <g>
        <path class="st49" d="M104.4 67.7H256v100H104.4z"/>
        <path class="st4" d="M104.4 167.7H256v100H104.4z"/>
        <path class="st31" d="M256 67.7h151.6v100H256z"/>
        <path class="st50" d="M256 167.7h151.6v100H256z"/>
        <path class="st31" d="M222.7 33.8H256V0h-66.5v67.7h33.2z"/>
        <path class="st32" d="M289.3 33.8H256V0h66.5v67.7h-33.2z"/>
      </g>
    </g>
  </g>
  <g>
    <path class="st13" d="M218.6 181.1v9.5c0 7.3 3.2 9.9 8.3 9.9 5.1 0 8.3-2.6 8.3-9.9v-22.4c0-7.3-3.2-10-8.3-10-5.1 0-8.3 2.8-8.3 10v3.1h-15.1l2.9-59.1h42.2v14.6h-28l-1.3 24.3h.3a15 15 0 0 1 13.8-7.4c11.8 0 17.8 8.3 17.8 23.3v22.7c0 16.3-8.2 25.6-23.9 25.6s-23.9-9.3-23.9-25.6v-8.4h15.2zM260.5 136.5c0-16.3 8.6-25.6 24.3-25.6 15.7 0 24.3 9.3 24.3 25.6v53c0 16.3-8.6 25.6-24.3 25.6-15.7 0-24.3-9.3-24.3-25.6v-53zm16 54.1c0 7.3 3.2 10 8.3 10 5.1 0 8.3-2.8 8.3-10v-55c0-7.3-3.2-10-8.3-10-5.1 0-8.3 2.8-8.3 10v55z"/>
  </g>
</svg>
