<svg xmlns="http://www.w3.org/2000/svg" viewBox="0 0 512 512">
  <style>
    .st0{fill:#5e9d96}.st1{fill:#ffaf10}.st3{fill:#ffd00d}.st4{fill:#eabd00}.st5{fill:#ef8318}.st6{fill:#db722c}.st13{fill:#fff}
  </style>
  <circle class="st0" cx="256" cy="267" r="245"/>
  <path class="st1" d="M273.5 361.8v-53.6c-2.1.5-4.2.8-6.4.8H245c-2.2 0-4.4-.3-6.4-.8v53.6h34.9z"/>
  <path d="M254 361.8V309h-9.1c-2.2 0-4.4-.3-6.4-.8v53.6H254z" fill="#ef9614"/>
  <path class="st3" d="M256 285c-13.4 0-26.2-2.5-38.1-7v4.9a27 27 0 0 0 27 27H267a27 27 0 0 0 27-27V278c-11.8 4.5-24.6 7-38 7z"/>
  <path class="st4" d="M248.9 284.8c-10.8-.7-21.2-3-31-6.7v4.9a27 27 0 0 0 27 27H267c1.5 0 3-.1 4.4-.4a27 27 0 0 1-22.5-24.8z"/>
  <path class="st5" d="M295 382v-17a5 5 0 0 0-5-5h-68a5 5 0 0 0-5 5v17h78z"/>
  <path class="st6" d="M247 382v-17a5 5 0 0 1 5-5h-30a5 5 0 0 0-5 5v17h30z"/>
  <path d="M350.5 467v-82a5 5 0 0 0-5-5h-179a5 5 0 0 0-5 5v82h189z" fill="#a05f33"/>
  <path d="M177 467v-82a5 5 0 0 1 5-5h-15.5a5 5 0 0 0-5 5v82H177z" fill="#87502a"/>
  <path class="st0" d="M323 445a5 5 0 0 1-5 5H194a5 5 0 0 1-5-5v-42a5 5 0 0 1 5-5h124a5 5 0 0 1 5 5v42z"/>
  <path d="M209 445v-42a5 5 0 0 1 5-5h-20a5 5 0 0 0-5 5v42a5 5 0 0 0 5 5h20a5 5 0 0 1-5-5z" fill="#4b7d78"/>
  <path d="M371.5 466h-231a5 5 0 0 0-5 5v9.4C171.1 500.5 212.2 512 256 512s84.9-11.5 120.5-31.6V471a5 5 0 0 0-5-5z" fill="#bf7e52"/>
  <path d="M166 471a5 5 0 0 1 5-5h-30.5a5 5 0 0 0-5 5v9.4c9.8 5.5 20 10.4 30.5 14.6v-24z" fill="#aa6b3f"/>
  <path class="st1" d="M424.3 25.6h-38.8V34a4 4 0 0 1-4 4h-16.8c-.6 0-1 .4-1 1v11.6h52.4c-2.1 43.8-21.9 83-52.4 110.7v16c0 5.8-.5 11.5-1.4 17.1 47.7-33.6 79-89 79-151.7a17 17 0 0 0-17-17.1z"/>
  <path class="st4" d="M148.3 177.3v-16A159.6 159.6 0 0 1 95.9 50.6h52.4V39c0-.6-.4-1-1-1h-16.8a4 4 0 0 1-4-4v-8.4H87.7c-9.4 0-17.1 7.7-17.1 17.1 0 62.6 31.2 118.1 79 151.7-.8-5.6-1.3-11.3-1.3-17.1z"/>
  <path class="st5" d="M147.3 38v139.3a108.7 108.7 0 0 0 217.4 0V38H147.3z"/>
  <path class="st6" d="M169 177.3V37h-21.7v140.3a108.7 108.7 0 0 0 119.5 108.2A108.8 108.8 0 0 1 169 177.3z"/>
  <circle class="st6" cx="256" cy="155.5" r="82.2"/>
  <path d="M193.7 155.5A82.2 82.2 0 0 1 265.3 74a82.2 82.2 0 1 0 0 163 82.3 82.3 0 0 1-71.6-81.5z" fill="#c95e23"/>
  <path class="st4" d="M386.5 34a5 5 0 0 1-5 5h-251a5 5 0 0 1-5-5V5a5 5 0 0 1 5-5h251a5 5 0 0 1 5 5v29z"/>
  <path class="st1" d="M156 34V5a5 5 0 0 1 5-5h-30.5a5 5 0 0 0-5 5v29a5 5 0 0 0 5 5H161a5 5 0 0 1-5-5z"/>
  <path class="st3" d="M127 331a3 3 0 0 1-2.8-2c-5.8-17.1-10.1-21.4-27.1-27.1-1.2-.4-2-1.6-2-2.8s.8-2.4 2-2.8c17.1-5.8 21.4-10.1 27.1-27.1a3 3 0 0 1 2.8-2 3 3 0 0 1 2.8 2c5.8 17.1 10.1 21.4 27.1 27.1 1.2.4 2 1.6 2 2.8s-.8 2.4-2 2.8c-17.1 5.8-21.4 10.1-27.1 27.1a3 3 0 0 1-2.8 2z"/>
  <path class="st13" d="M375.5 298c-1 0-1.9-.7-2.3-1.6-4.6-13.6-8-17-21.6-21.6-1-.3-1.6-1.2-1.6-2.3 0-1 .7-1.9 1.6-2.3 13.6-4.6 17-8 21.6-21.6.3-1 1.2-1.6 2.3-1.6s1.9.7 2.3 1.6c4.6 13.6 8 17 21.6 21.6 1 .3 1.6 1.2 1.6 2.3 0 1-.7 1.9-1.6 2.3-13.6 4.6-17 8-21.6 21.6-.4.9-1.3 1.6-2.3 1.6zM283 419h-54c-2.8 0-5-2.2-5-5s2.2-5 5-5h54c2.8 0 5 2.2 5 5s-2.2 5-5 5zM271 437h-30c-2.8 0-5-2.2-5-5s2.2-5 5-5h30c2.8 0 5 2.2 5 5s-2.2 5-5 5zM195 80c-1 0-1.8-.6-2.1-1.5-4.3-12.8-7.5-16-20.3-20.3-.9-.3-1.5-1.2-1.5-2.1s.6-1.8 1.5-2.1c12.8-4.3 16-7.5 20.3-20.3.3-.9 1.2-1.5 2.1-1.5s1.8.6 2.1 1.5c4.3 12.8 7.5 16 20.3 20.3.9.3 1.5 1.2 1.5 2.1s-.6 1.8-1.5 2.1c-12.8 4.3-16 7.5-20.3 20.3-.3.9-1.1 1.5-2.1 1.5z"/>
  <g>
    <path class="st13" d="M227.6 113.2c-5.1 0-8.3 2.8-8.3 10v10.9h-15.1v-9.9c0-16.3 8.2-25.6 23.9-25.6s23.9 9.3 23.9 25.6c0 13.5-5 24.5-19.8 40.3-9.5 10.2-12.1 15-12.1 20.4l.1 2.2h30.3v14.6h-46.3v-12.5c0-11.4 4.1-20 16-32.5 12.2-13 15.7-21 15.7-31.9 0-9.2-3.2-11.6-8.3-11.6zM260.5 124.2c0-16.3 8.6-25.6 24.3-25.6 15.7 0 24.3 9.3 24.3 25.6v53c0 16.3-8.6 25.6-24.3 25.6-15.7 0-24.3-9.3-24.3-25.6v-53zm16 54.1c0 7.3 3.2 10 8.3 10 5.1 0 8.3-2.8 8.3-10v-55c0-7.3-3.2-10-8.3-10-5.1 0-8.3 2.8-8.3 10v55z"/>
  </g>
</svg>
