<svg id="Capa_1" xmlns="http://www.w3.org/2000/svg" xmlns:xlink="http://www.w3.org/1999/xlink" viewBox="0 0 512 512">
  <style>
    .st0{fill:#5e9d96}.st13{fill:#fff}.st17{fill:#d1121d}.st52{fill:#db8d84}.st53{fill:#e9a9ab}.st54{fill:#e4b9c5}
  </style>
  <circle class="st0" cx="256" cy="267" r="245"/>
  <defs>
    <path id="SVGID_51_" d="M11 0v267a245 245 0 0 0 490 0V0H11z"/>
  </defs>
  <clipPath id="SVGID_2_">
    <use xlink:href="#SVGID_51_" overflow="visible"/>
  </clipPath>
  <g clip-path="url(#SVGID_2_)">
    <path class="st52" d="M455.1 92a26.4 26.4 0 0 0-26.4 26.4v145L229.6 441.5 256 512h146.3v-61.7l79.3-131.7V118.4A26.5 26.5 0 0 0 455.1 92z"/>
    <path class="st53" d="M420.9 244.9a26.5 26.5 0 0 0-37.4 0L271.4 357a52.6 52.6 0 0 0-15.4 37.4L229.6 440l26.4 45.6a79.3 79.3 0 0 0 79.3-79.3v-38.4l85.6-85.6a26.3 26.3 0 0 0 0-37.4z"/>
    <path class="st53" d="M202.7 367.4l-119.4-104v-145a26.4 26.4 0 1 0-52.8 0v200.2l79.3 131.7V512H256v-26.4l-53.3-118.2z"/>
    <path class="st54" d="M240.6 357L128.4 244.9A26.5 26.5 0 0 0 91 282.3l85.6 85.6v38.4a79.3 79.3 0 0 0 79.3 79.3v-91.2a52.3 52.3 0 0 0-15.3-37.4z"/>
  </g>
  <path class="st17" d="M256.5 271c20.9-23.9 44.8-44 67.6-65.6a824.8 824.8 0 0 0 50-50.7 192 192 0 0 0 23.3-35A74.2 74.2 0 0 0 405 71c-5.6-34.7-28.8-61.6-59.8-69.1-29.9-7.2-61.3 6.7-79.3 35.2-6.2 9.9-13.5 9.8-19.8.1C231.2 14 211 .9 185.1.4c-29.5-.6-52.5 13.3-67.8 41.1a84 84 0 0 0-.6 83.7 211.9 211.9 0 0 0 42.7 54.1c19.1 18.3 38.9 35.8 58.2 53.9 13 12.2 25.7 25 38.9 37.8z"/>
  <path class="st13" d="M247.4 147.1v9.5c0 7.3 3.2 9.9 8.3 9.9 5.1 0 8.3-2.6 8.3-9.9v-22.4c0-7.3-3.2-10-8.3-10-5.1 0-8.3 2.8-8.3 10v3.1h-15.1l2.9-59.1h42.2v14.6h-28l-1.3 24.3h.3a15 15 0 0 1 13.8-7.4c11.8 0 17.8 8.3 17.8 23.3v22.7c0 16.3-8.2 25.6-23.9 25.6s-23.9-9.3-23.9-25.6v-8.4h15.2z"/>
  <circle class="st0" cx="256" cy="267" r="245"/>
  <defs>
    <path id="SVGID_61_" d="M11 0v267a245 245 0 0 0 490 0V0H11z"/>
  </defs>
  <clipPath id="SVGID_4_">
    <use xlink:href="#SVGID_61_" overflow="visible"/>
  </clipPath>
  <g clip-path="url(#SVGID_4_)">
    <path class="st52" d="M455.1 92a26.4 26.4 0 0 0-26.4 26.4v145L229.6 441.5 256 512h146.3v-61.7l79.3-131.7V118.4A26.5 26.5 0 0 0 455.1 92z"/>
    <path class="st53" d="M420.9 244.9a26.5 26.5 0 0 0-37.4 0L271.4 357a52.6 52.6 0 0 0-15.4 37.4L229.6 440l26.4 45.6a79.3 79.3 0 0 0 79.3-79.3v-38.4l85.6-85.6a26.3 26.3 0 0 0 0-37.4z"/>
    <path class="st53" d="M202.7 367.4l-119.4-104v-145a26.4 26.4 0 1 0-52.8 0v200.2l79.3 131.7V512H256v-26.4l-53.3-118.2z"/>
    <path class="st54" d="M240.6 357L128.4 244.9A26.5 26.5 0 0 0 91 282.3l85.6 85.6v38.4a79.3 79.3 0 0 0 79.3 79.3v-91.2a52.3 52.3 0 0 0-15.3-37.4z"/>
  </g>
  <path class="st17" d="M256.5 271c20.9-23.9 44.8-44 67.6-65.6a824.8 824.8 0 0 0 50-50.7 192 192 0 0 0 23.3-35A74.2 74.2 0 0 0 405 71c-5.6-34.7-28.8-61.6-59.8-69.1-29.9-7.2-61.3 6.7-79.3 35.2-6.2 9.9-13.5 9.8-19.8.1C231.2 14 211 .9 185.1.4c-29.5-.6-52.5 13.3-67.8 41.1a84 84 0 0 0-.6 83.7 211.9 211.9 0 0 0 42.7 54.1c19.1 18.3 38.9 35.8 58.2 53.9 13 12.2 25.7 25 38.9 37.8z"/>
  <g>
    <path class="st13" d="M218.6 147.1v9.5c0 7.3 3.2 9.9 8.3 9.9 5.1 0 8.3-2.6 8.3-9.9v-22.4c0-7.3-3.2-10-8.3-10-5.1 0-8.3 2.8-8.3 10v3.1h-15.1l2.9-59.1h42.2v14.6h-28l-1.3 24.3h.3a15 15 0 0 1 13.8-7.4c11.8 0 17.8 8.3 17.8 23.3v22.7c0 16.3-8.2 25.6-23.9 25.6s-23.9-9.3-23.9-25.6v-8.4h15.2zM260.5 102.5c0-16.3 8.6-25.6 24.3-25.6 15.7 0 24.3 9.3 24.3 25.6v53c0 16.3-8.6 25.6-24.3 25.6-15.7 0-24.3-9.3-24.3-25.6v-53zm16 54.1c0 7.3 3.2 10 8.3 10 5.1 0 8.3-2.8 8.3-10v-55c0-7.3-3.2-10-8.3-10-5.1 0-8.3 2.8-8.3 10v55z"/>
  </g>
</svg>
